borges.glyphspackage
{
glyphname = germandbls;
kernLeft = horizontal;
kernRight = horizontal;
layers = (
{
layerId = m01;
shapes = (
{
ref = b;
},
{
closed = 1;
nodes = (
(200,500,l),
(200,400,l),
(100,400,l),
(100,500,l)
);
}
);
width = 900;
}
);
unicode = 223;
}
{
glyphname = icircumflex;
kernLeft = horizontal;
kernRight = horizontal;
layers = (
{
layerId = m01;
shapes = (
{
ref = i;
},
{
closed = 1;
nodes = (
(200,500,l),
(200,400,l),
(100,400,l),
(100,500,l)
);
},
{
closed = 1;
nodes = (
(800,500,l),
(800,400,l),
(700,400,l),
(700,500,l)
);
},
{
closed = 1;
nodes = (
(500,400,l),
(500,300,l),
(400,300,l),
(400,400,l)
);
}
);
width = 900;
}
);
unicode = 238;
}
{
glyphname = idieresis;
kernLeft = horizontal;
kernRight = horizontal;
layers = (
{
layerId = m01;
shapes = (
{
ref = i;
},
{
closed = 1;
nodes = (
(600,500,l),
(600,400,l),
(500,400,l),
(500,500,l)
);
},
{
closed = 1;
nodes = (
(800,500,l),
(800,400,l),
(700,400,l),
(700,500,l)
);
}
);
width = 900;
}
);
unicode = 239;
}
{
glyphname = ntilde;
kernLeft = horizontal;
kernRight = horizontal;
layers = (
{
layerId = m01;
shapes = (
{
ref = n;
},
{
closed = 1;
nodes = (
(300,200,l),
(300,100,l),
(200,100,l),
(200,200,l)
);
},
{
closed = 1;
nodes = (
(700,400,l),
(700,300,l),
(600,300,l),
(600,400,l)
);
}
);
width = 900;
}
);
unicode = 241;
}
{
glyphname = ocircumflex;
kernLeft = horizontal;
kernRight = horizontal;
layers = (
{
layerId = m01;
shapes = (
{
ref = o;
},
{
closed = 1;
nodes = (
(200,500,l),
(200,400,l),
(100,400,l),
(100,500,l)
);
},
{
closed = 1;
nodes = (
(800,500,l),
(800,400,l),
(700,400,l),
(700,500,l)
);
},
{
closed = 1;
nodes = (
(900,400,l),
(900,300,l),
(800,300,l),
(800,400,l)
);
},
{
closed = 1;
nodes = (
(900,300,l),
(900,200,l),
(800,200,l),
(800,300,l)
);
},
{
closed = 1;
nodes = (
(100,400,l),
(100,300,l),
(0,300,l),
(0,400,l)
);
},
{
closed = 1;
nodes = (
(100,300,l),
(100,200,l),
(0,200,l),
(0,300,l)
);
}
);
width = 900;
}
);
unicode = 244;
}
{
glyphname = otilde;
kernLeft = horizontal;
kernRight = horizontal;
layers = (
{
layerId = m01;
shapes = (
{
ref = o;
},
{
closed = 1;
nodes = (
(200,500,l),
(200,400,l),
(100,400,l),
(100,500,l)
);
},
{
closed = 1;
nodes = (
(400,500,l),
(400,400,l),
(300,400,l),
(300,500,l)
);
},
{
closed = 1;
nodes = (
(600,500,l),
(600,400,l),
(500,400,l),
(500,500,l)
);
},
{
closed = 1;
nodes = (
(800,500,l),
(800,400,l),
(700,400,l),
(700,500,l)
);
}
);
width = 900;
}
);
unicode = 245;
}
{
glyphname = oslash;
kernLeft = horizontal;
kernRight = horizontal;
layers = (
{
layerId = m01;
shapes = (
{
ref = o;
},
{
closed = 1;
nodes = (
(400,0,l),
(500,0,l),
(500,400,l),
(400,400,l)
);
}
);
width = 900;
}
);
unicode = 248;
}
{
glyphname = uacute;
kernLeft = horizontal;
kernRight = horizontal;
layers = (
{
layerId = m01;
shapes = (
{
ref = u;
},
{
closed = 1;
nodes = (
(700,300,l),
(700,200,l),
(600,200,l),
(600,300,l)
);
}
);
width = 900;
}
);
unicode = 250;
}
{
glyphname = ucircumflex;
kernLeft = horizontal;
kernRight = horizontal;
layers = (
{
layerId = m01;
shapes = (
{
ref = u;
},
{
closed = 1;
nodes = (
(400,500,l),
(400,400,l),
(300,400,l),
(300,500,l)
);
},
{
closed = 1;
nodes = (
(600,500,l),
(600,400,l),
(500,400,l),
(500,500,l)
);
},
{
closed = 1;
nodes = (
(100,400,l),
(100,300,l),
(0,300,l),
(0,400,l)
);
},
{
closed = 1;
nodes = (
(300,400,l),
(300,300,l),
(200,300,l),
(200,400,l)
);
},
{
closed = 1;
nodes = (
(500,400,l),
(500,300,l),
(400,300,l),
(400,400,l)
);
},
{
closed = 1;
nodes = (
(700,400,l),
(700,300,l),
(600,300,l),
(600,400,l)
);
},
{
closed = 1;
nodes = (
(900,400,l),
(900,300,l),
(800,300,l),
(800,400,l)
);
}
);
width = 900;
}
);
unicode = 251;
}
{
glyphname = udieresis;
kernLeft = horizontal;
kernRight = horizontal;
layers = (
{
layerId = m01;
shapes = (
{
ref = u;
},
{
closed = 1;
nodes = (
(300,400,l),
(300,300,l),
(200,300,l),
(200,400,l)
);
},
{
closed = 1;
nodes = (
(700,400,l),
(700,300,l),
(600,300,l),
(600,400,l)
);
}
);
width = 900;
}
);
unicode = 252;
}
{
glyphname = yacute;
kernLeft = horizontal;
kernRight = horizontal;
layers = (
{
layerId = m01;
shapes = (
{
ref = y;
},
{
closed = 1;
nodes = (
(900,300,l),
(900,200,l),
(800,200,l),
(800,300,l)
);
}
);
width = 900;
}
);
unicode = 253;
}
{
glyphname = ydieresis;
kernLeft = horizontal;
kernRight = horizontal;
layers = (
{
layerId = m01;
shapes = (
{
ref = y;
},
{
closed = 1;
nodes = (
(400,500,l),
(400,400,l),
(300,400,l),
(300,500,l)
);
}
);
width = 900;
}
);
unicode = 255;
}
{
glyphname = Dcaron;
kernLeft = vertical;
kernRight = vertical;
layers = (
{
layerId = m01;
shapes = (
{
ref = D;
},
{
ref = caroncomb;
},
{
closed = 1;
nodes = (
(300,600,l),
(300,500,l),
(200,500,l),
(200,600,l)
);
},
{
closed = 1;
nodes = (
(600,500,l),
(600,400,l),
(500,400,l),
(500,500,l)
);
},
{
closed = 1;
nodes = (
(500,400,l),
(500,300,l),
(400,300,l),
(400,400,l)
);
},
{
closed = 1;
nodes = (
(700,600,l),
(700,500,l),
(600,500,l),
(600,600,l)
);
}
);
width = 900;
}
);
unicode = 270;
}
{
glyphname = Gbreve;
kernLeft = vertical;
kernRight = vertical;
layers = (
{
layerId = m01;
shapes = (
{
ref = "G-comb";
},
{
ref = brevecomb;
},
{
closed = 1;
nodes = (
(600,700,l),
(600,500,l),
(500,500,l),
(500,700,l)
);
},
{
closed = 1;
nodes = (
(700,600,l),
(700,500,l),
(600,500,l),
(600,600,l)
);
},
{
closed = 1;
nodes = (
(500,600,l),
(500,500,l),
(400,500,l),
(400,600,l)
);
},
{
closed = 1;
nodes = (
(500,700,l),
(500,600,l),
(400,600,l),
(400,700,l)
);
},
{
closed = 1;
nodes = (
(400,600,l),
(400,500,l),
(300,500,l),
(300,600,l)
);
}
);
width = 900;
}
);
unicode = 286;
}
{
glyphname = gbreve;
kernLeft = horizontal;
kernRight = horizontal;
layers = (
{
layerId = m01;
shapes = (
{
ref = g;
},
{
closed = 1;
nodes = (
(500,500,l),
(500,400,l),
(400,400,l),
(400,500,l)
);
}
);
width = 900;
}
);
unicode = 287;
}
{
glyphname = gdotaccent;
kernLeft = horizontal;
kernRight = horizontal;
layers = (
{
layerId = m01;
shapes = (
{
ref = g;
},
{
closed = 1;
nodes = (
(500,500,l),
(500,400,l),
(400,400,l),
(400,500,l)
);
},
{
closed = 1;
nodes = (
(700,500,l),
(700,400,l),
(600,400,l),
(600,500,l)
);
}
);
width = 900;
}
);
unicode = 289;
}
{
glyphname = hbar;
kernLeft = horizontal;
kernRight = horizontal;
layers = (
{
layerId = m01;
shapes = (
{
ref = h;
},
{
closed = 1;
nodes = (
(500,400,l),
(500,300,l),
(400,300,l),
(400,400,l)
);
},
{
closed = 1;
nodes = (
(500,200,l),
(500,100,l),
(400,100,l),
(400,200,l)
);
}
);
width = 900;
}
);
unicode = 295;
}
{
glyphname = imacron;
kernLeft = horizontal;
kernRight = horizontal;
layers = (
{
layerId = m01;
shapes = (
{
ref = i;
},
{
closed = 1;
nodes = (
(500,400,l),
(500,300,l),
(400,300,l),
(400,400,l)
);
}
);
width = 900;
}
);
unicode = 299;
}
{
glyphname = iogonek;
kernLeft = horizontal;
kernRight = horizontal;
layers = (
{
layerId = m01;
shapes = (
{
ref = i;
},
{
closed = 1;
nodes = (
(400,100,l),
(400,0,l),
(300,0,l),
(300,100,l)
);
}
);
width = 900;
}
);
unicode = 303;
}
{
glyphname = kcommaaccent;
kernLeft = horizontal;
kernRight = horizontal;
layers = (
{
layerId = m01;
shapes = (
{
ref = k;
},
{
closed = 1;
nodes = (
(700,100,l),
(700,0,l),
(600,0,l),
(600,100,l)
);
}
);
width = 900;
}
);
unicode = 311;
}
{
glyphname = lacute;
kernLeft = horizontal;
kernRight = horizontal;
layers = (
{
layerId = m01;
shapes = (
{
ref = l;
},
{
closed = 1;
nodes = (
(300,300,l),
(300,200,l),
(200,200,l),
(200,300,l)
);
}
);
width = 900;
}
);
unicode = 314;
}
{
glyphname = lcaron;
kernLeft = horizontal;
kernRight = horizontal;
layers = (
{
layerId = m01;
shapes = (
{
ref = l;
},
{
closed = 1;
nodes = (
(500,400,l),
(500,300,l),
(400,300,l),
(400,400,l)
);
},
{
closed = 1;
nodes = (
(700,500,l),
(700,400,l),
(600,400,l),
(600,500,l)
);
},
{
closed = 1;
nodes = (
(600,500,l),
(600,400,l),
(500,400,l),
(500,500,l)
);
}
);
width = 900;
}
);
unicode = 318;
}
{
glyphname = nacute;
kernLeft = horizontal;
kernRight = horizontal;
layers = (
{
layerId = m01;
shapes = (
{
ref = n;
},
{
closed = 1;
nodes = (
(900,300,l),
(900,200,l),
(800,200,l),
(800,300,l)
);
}
);
width = 900;
}
);
unicode = 324;
}
{
glyphname = ncaron;
kernLeft = horizontal;
kernRight = horizontal;
layers = (
{
layerId = m01;
shapes = (
{
ref = n;
},
{
closed = 1;
nodes = (
(300,500,l),
(300,400,l),
(200,400,l),
(200,500,l)
);
},
{
closed = 1;
nodes = (
(500,400,l),
(500,300,l),
(400,300,l),
(400,400,l)
);
}
);
width = 900;
}
);
unicode = 328;
}
{
glyphname = omacron;
kernLeft = horizontal;
kernRight = horizontal;
layers = (
{
layerId = m01;
shapes = (
{
ref = o;
},
{
closed = 1;
nodes = (
(100,300,l),
(100,200,l),
(0,200,l),
(0,300,l)
);
},
{
closed = 1;
nodes = (
(100,400,l),
(100,300,l),
(0,300,l),
(0,400,l)
);
},
{
closed = 1;
nodes = (
(900,400,l),
(900,300,l),
(800,300,l),
(800,400,l)
);
},
{
closed = 1;
nodes = (
(900,300,l),
(900,200,l),
(800,200,l),
(800,300,l)
);
}
);
width = 900;
}
);
unicode = 333;
}
{
glyphname = ohungarumlaut;
kernLeft = horizontal;
kernRight = horizontal;
layers = (
{
layerId = m01;
shapes = (
{
ref = o;
},
{
closed = 1;
nodes = (
(300,500,l),
(300,400,l),
(200,400,l),
(200,500,l)
);
},
{
closed = 1;
nodes = (
(500,500,l),
(500,400,l),
(400,400,l),
(400,500,l)
);
},
{
closed = 1;
nodes = (
(700,500,l),
(700,400,l),
(600,400,l),
(600,500,l)
);
},
{
closed = 1;
nodes = (
(400,400,l),
(400,300,l),
(300,300,l),
(300,400,l)
);
},
{
closed = 1;
nodes = (
(500,300,l),
(500,200,l),
(400,200,l),
(400,300,l)
);
},
{
closed = 1;
nodes = (
(600,400,l),
(600,300,l),
(500,300,l),
(500,400,l)
);
}
);
width = 900;
}
);
unicode = 337;
}
{
glyphname = rcommaaccent;
kernLeft = horizontal;
kernRight = horizontal;
layers = (
{
layerId = m01;
shapes = (
{
ref = r;
},
{
closed = 1;
nodes = (
(100,300,l),
(100,200,l),
(0,200,l),
(0,300,l)
);
}
);
width = 900;
}
);
unicode = 343;
}
{
glyphname = sacute;
kernLeft = horizontal;
kernRight = horizontal;
layers = (
{
layerId = m01;
shapes = (
{
ref = s;
},
{
closed = 1;
nodes = (
(700,500,l),
(700,400,l),
(600,400,l),
(600,500,l)
);
}
);
width = 900;
}
);
unicode = 347;
}
{
glyphname = scedilla;
kernLeft = horizontal;
kernRight = horizontal;
layers = (
{
layerId = m01;
shapes = (
{
ref = s;
},
{
closed = 1;
nodes = (
(500,100,l),
(500,0,l),
(400,0,l),
(400,100,l)
);
}
);
width = 900;
}
);
unicode = 351;
}
{
glyphname = Scaron;
kernLeft = vertical;
kernRight = vertical;
layers = (
{
layerId = m01;
shapes = (
{
ref = S;
},
{
alignment = -1;
pos = (100,-200);
ref = pixel;
},
{
alignment = -1;
pos = (200,-200);
ref = pixel;
},
{
alignment = -1;
pos = (300,-200);
ref = pixel;
},
{
alignment = -1;
pos = (400,-200);
ref = pixel;
},
{
alignment = -1;
pos = (500,-200);
ref = pixel;
},
{
alignment = -1;
pos = (600,-200);
ref = pixel;
},
{
alignment = -1;
pos = (700,-200);
ref = pixel;
},
{
alignment = -1;
pos = (600,200);
ref = pixel;
},
{
alignment = -1;
pos = (600,100);
ref = pixel;
},
{
alignment = -1;
pos = (600,0);
ref = pixel;
},
{
alignment = -1;
pos = (600,-100);
ref = pixel;
},
{
alignment = -1;
pos = (600,400);
ref = pixel;
},
{
alignment = -1;
pos = (500,400);
ref = pixel;
},
{
alignment = -1;
pos = (400,400);
ref = pixel;
},
{
alignment = -1;
pos = (400,300);
ref = pixel;
},
{
alignment = -1;
pos = (400,200);
ref = pixel;
},
{
alignment = -1;
pos = (400,100);
ref = pixel;
},
{
alignment = -1;
pos = (400,0);
ref = pixel;
},
{
alignment = -1;
pos = (300,0);
ref = pixel;
},
{
alignment = -1;
pos = (200,0);
ref = pixel;
},
{
alignment = -1;
pos = (200,400);
ref = pixel;
},
{
alignment = -1;
pos = (200,300);
ref = pixel;
},
{
alignment = -1;
pos = (200,200);
ref = pixel;
},
{
closed = 1;
nodes = (
(400,500,l),
(500,500,l),
(500,600,l),
(400,600,l)
);
},
{
closed = 1;
nodes = (
(300,600,l),
(300,500,l),
(200,500,l),
(200,600,l)
);
}
);
width = 900;
}
);
unicode = 352;
}
{
glyphname = scaron;
kernLeft = horizontal;
kernRight = horizontal;
layers = (
{
layerId = m01;
shapes = (
{
ref = s;
},
{
closed = 1;
nodes = (
(600,500,l),
(600,400,l),
(500,400,l),
(500,500,l)
);
}
);
width = 900;
}
);
unicode = 353;
}
{
glyphname = tcedilla;
kernLeft = horizontal;
kernRight = horizontal;
layers = (
{
layerId = m01;
shapes = (
{
ref = t;
},
{
closed = 1;
nodes = (
(300,200,l),
(300,100,l),
(200,100,l),
(200,200,l)
);
}
);
width = 900;
}
);
unicode = 355;
}
{
glyphname = tcaron;
kernLeft = horizontal;
kernRight = horizontal;
layers = (
{
layerId = m01;
shapes = (
{
ref = t;
},
{
closed = 1;
nodes = (
(800,500,l),
(800,400,l),
(700,400,l),
(700,500,l)
);
}
);
width = 900;
}
);
unicode = 357;
}
{
glyphname = Utilde;
kernLeft = vertical;
kernRight = vertical;
layers = (
{
layerId = m01;
shapes = (
{
ref = U;
},
{
ref = tildecomb;
},
{
closed = 1;
nodes = (
(300,700,l),
(300,500,l),
(200,500,l),
(200,700,l)
);
},
{
closed = 1;
nodes = (
(500,700,l),
(500,500,l),
(400,500,l),
(400,700,l)
);
},
{
closed = 1;
nodes = (
(700,700,l),
(700,500,l),
(600,500,l),
(600,700,l)
);
}
);
width = 900;
}
);
unicode = 360;
}
{
glyphname = utilde;
kernLeft = horizontal;
kernRight = horizontal;
layers = (
{
layerId = m01;
shapes = (
{
ref = u;
},
{
closed = 1;
nodes = (
(700,400,l),
(700,300,l),
(600,300,l),
(600,400,l)
);
},
{
closed = 1;
nodes = (
(500,400,l),
(500,300,l),
(400,300,l),
(400,400,l)
);
},
{
closed = 1;
nodes = (
(300,400,l),
(300,300,l),
(200,300,l),
(200,400,l)
);
}
);
width = 900;
}
);
unicode = 361;
}
{
glyphname = Uring;
kernLeft = vertical;
kernRight = vertical;
layers = (
{
layerId = m01;
shapes = (
{
ref = "U-comb";
},
{
ref = ringcomb;
},
{
closed = 1;
nodes = (
(500,400,l),
(500,300,l),
(400,300,l),
(400,400,l)
);
},
{
closed = 1;
nodes = (
(300,500,l),
(300,400,l),
(200,400,l),
(200,500,l)
);
},
{
closed = 1;
nodes = (
(700,500,l),
(700,400,l),
(600,400,l),
(600,500,l)
);
},
{
closed = 1;
nodes = (
(400,500,l),
(400,400,l),
(300,400,l),
(300,500,l)
);
},
{
closed = 1;
nodes = (
(600,500,l),
(600,400,l),
(500,400,l),
(500,500,l)
);
},
{
closed = 1;
nodes = (
(700,400,l),
(700,300,l),
(600,300,l),
(600,400,l)
);
},
{
closed = 1;
nodes = (
(300,400,l),
(300,300,l),
(200,300,l),
(200,400,l)
);
}
);
width = 900;
}
);
unicode = 366;
}
{
glyphname = uring;
kernLeft = horizontal;
kernRight = horizontal;
layers = (
{
layerId = m01;
shapes = (
{
ref = u;
},
{
closed = 1;
nodes = (
(500,400,l),
(500,300,l),
(400,300,l),
(400,400,l)
);
}
);
width = 900;
}
);
unicode = 367;
}
{
glyphname = uhungarumlaut;
kernLeft = horizontal;
kernRight = horizontal;
layers = (
{
layerId = m01;
shapes = (
{
ref = u;
},
{
closed = 1;
nodes = (
(700,400,l),
(700,300,l),
(600,300,l),
(600,400,l)
);
},
{
closed = 1;
nodes = (
(900,400,l),
(900,300,l),
(800,300,l),
(800,400,l)
);
}
);
width = 900;
}
);
unicode = 369;
}
{
glyphname = uogonek;
kernLeft = horizontal;
kernRight = horizontal;
layers = (
{
layerId = m01;
shapes = (
{
ref = u;
},
{
closed = 1;
nodes = (
(600,100,l),
(600,0,l),
(500,0,l),
(500,100,l)
);
}
);
width = 900;
}
);
unicode = 371;
}
{
glyphname = ycircumflex;
kernLeft = horizontal;
kernRight = horizontal;
layers = (
{
layerId = m01;
shapes = (
{
ref = y;
},
{
closed = 1;
nodes = (
(100,400,l),
(100,300,l),
(0,300,l),
(0,400,l)
);
},
{
closed = 1;
nodes = (
(600,500,l),
(600,400,l),
(500,400,l),
(500,500,l)
);
},
{
closed = 1;
nodes = (
(700,400,l),
(700,300,l),
(600,300,l),
(600,400,l)
);
},
{
closed = 1;
nodes = (
(900,400,l),
(900,300,l),
(800,300,l),
(800,400,l)
);
}
);
width = 900;
}
);
unicode = 375;
}
{
glyphname = zdotaccent;
kernLeft = horizontal;
kernRight = horizontal;
layers = (
{
layerId = m01;
shapes = (
{
ref = z;
},
{
closed = 1;
nodes = (
(400,500,l),
(400,400,l),
(300,400,l),
(300,500,l)
);
},
{
closed = 1;
nodes = (
(600,500,l),
(600,400,l),
(500,400,l),
(500,500,l)
);
}
);
width = 900;
}
);
unicode = 380;
}
{
glyphname = zcaron;
kernLeft = horizontal;
kernRight = horizontal;
layers = (
{
layerId = m01;
shapes = (
{
ref = z;
},
{
closed = 1;
nodes = (
(300,500,l),
(300,400,l),
(200,400,l),
(200,500,l)
);
},
{
closed = 1;
nodes = (
(700,500,l),
(700,400,l),
(600,400,l),
(600,500,l)
);
}
);
width = 900;
}
);
unicode = 382;
}
{
glyphname = adblgrave;
kernLeft = horizontal;
kernRight = horizontal;
layers = (
{
layerId = m01;
shapes = (
{
ref = a;
},
{
closed = 1;
nodes = (
(300,500,l),
(300,400,l),
(200,400,l),
(200,500,l)
);
}
);
width = 900;
}
);
unicode = 513;
}
{
glyphname = idblgrave;
kernLeft = horizontal;
kernRight = horizontal;
layers = (
{
layerId = m01;
shapes = (
{
ref = i;
},
{
closed = 1;
nodes = (
(400,500,l),
(400,400,l),
(300,400,l),
(300,500,l)
);
}
);
width = 900;
}
);
unicode = 521;
}
{
glyphname = udblgrave;
kernLeft = horizontal;
kernRight = horizontal;
layers = (
{
layerId = m01;
shapes = (
{
ref = u;
},
{
closed = 1;
nodes = (
(300,300,l),
(300,200,l),
(200,200,l),
(200,300,l)
);
}
);
width = 900;
}
);
unicode = 533;
}
{
glyphname = scommaaccent;
kernLeft = horizontal;
kernRight = horizontal;
layers = (
{
layerId = m01;
shapes = (
{
ref = s;
},
{
closed = 1;
nodes = (
(300,100,l),
(300,0,l),
(200,0,l),
(200,100,l)
);
}
);
width = 900;
}
);
unicode = 537;
}
{
glyphname = tcommaaccent;
kernLeft = horizontal;
kernRight = horizontal;
layers = (
{
layerId = m01;
shapes = (
{
ref = t;
},
{
closed = 1;
nodes = (
(200,100,l),
(200,0,l),
(100,0,l),
(100,100,l)
);
}
);
width = 900;
}
);
unicode = 539;
}
{
glyphname = gmacron;
kernLeft = horizontal;
kernRight = horizontal;
layers = (
{
layerId = m01;
shapes = (
{
ref = g;
},
{
closed = 1;
nodes = (
(400,500,l),
(400,400,l),
(300,400,l),
(300,500,l)
);
},
{
closed = 1;
nodes = (
(800,500,l),
(800,400,l),
(700,400,l),
(700,500,l)
);
}
);
width = 900;
}
);
unicode = 7713;
}
{
glyphname = wacute;
kernLeft = horizontal;
kernRight = horizontal;
layers = (
{
layerId = m01;
shapes = (
{
ref = w;
},
{
closed = 1;
nodes = (
(700,300,l),
(700,200,l),
(600,200,l),
(600,300,l)
);
}
);
width = 900;
}
);
unicode = 7811;
}
{
glyphname = Etilde;
kernLeft = vertical;
kernRight = vertical;
layers = (
{
layerId = m01;
shapes = (
{
ref = E;
},
{
ref = tildecomb;
},
{
closed = 1;
nodes = (
(300,700,l),
(300,500,l),
(200,500,l),
(200,700,l)
);
},
{
closed = 1;
nodes = (
(500,700,l),
(500,500,l),
(400,500,l),
(400,700,l)
);
},
{
closed = 1;
nodes = (
(700,700,l),
(700,600,l),
(600,600,l),
(600,700,l)
);
}
);
width = 900;
}
);
unicode = 7868;
}
{
glyphname = etilde;
kernLeft = horizontal;
kernRight = horizontal;
layers = (
{
layerId = m01;
shapes = (
{
ref = e;
},
{
closed = 1;
nodes = (
(400,500,l),
(400,400,l),
(300,400,l),
(300,500,l)
);
},
{
closed = 1;
nodes = (
(600,500,l),
(600,400,l),
(500,400,l),
(500,500,l)
);
},
{
closed = 1;
nodes = (
(800,500,l),
(800,400,l),
(700,400,l),
(700,500,l)
);
},
{
closed = 1;
nodes = (
(300,400,l),
(300,300,l),
(200,300,l),
(200,400,l)
);
}
);
width = 900;
}
);
unicode = 7869;
}
{
glyphname = ytilde;
kernLeft = horizontal;
kernRight = horizontal;
layers = (
{
layerId = m01;
shapes = (
{
ref = y;
},
{
closed = 1;
nodes = (
(700,400,l),
(700,300,l),
(600,300,l),
(600,400,l)
);
},
{
closed = 1;
nodes = (
(400,500,l),
(400,400,l),
(300,400,l),
(300,500,l)
);
},
{
closed = 1;
nodes = (
(700,200,l),
(700,100,l),
(600,100,l),
(600,200,l)
);
},
{
closed = 1;
nodes = (
(800,300,l),
(800,200,l),
(700,200,l),
(700,300,l)
);
},
{
closed = 1;
nodes = (
(800,100,l),
(800,0,l),
(700,0,l),
(700,100,l)
);
}
);
width = 900;
}
);
unicode = 7929;
}
{
glyphname = commaturnedmod.alt;
kernLeft = horizontal;
kernRight = horizontal;
layers = (
{
layerId = m01;
shapes = (
{
ref = quotedblbase.alt;
},
{
closed = 1;
nodes = (
(500,200,l),
(500,100,l),
(400,100,l),
(400,200,l)
);
}
);
width = 900;
}
);
}
{
glyphname = idotaccent;
kernLeft = horizontal;
kernRight = horizontal;
layers = (
{
layerId = m01;
shapes = (
{
ref = i;
},
{
closed = 1;
nodes = (
(500,400,l),
(500,300,l),
(400,300,l),
(400,400,l)
);
},
{
closed = 1;
nodes = (
(400,500,l),
(400,400,l),
(300,400,l),
(300,500,l)
);
},
{
closed = 1;
nodes = (
(600,500,l),
(600,400,l),
(500,400,l),
(500,500,l)
);
}
);
width = 900;
}
);
}
{
glyphname = jacute;
kernLeft = horizontal;
kernRight = horizontal;
layers = (
{
layerId = m01;
shapes = (
{
ref = j;
},
{
closed = 1;
nodes = (
(900,300,l),
(900,200,l),
(800,200,l),
(800,300,l)
);
}
);
width = 900;
}
);
}
{
color = 3;
glyphname = micro.alt;
kernLeft = horizontal;
kernRight = horizontal;
layers = (
{
layerId = m01;
shapes = (
{
ref = u;
},
{
closed = 1;
nodes = (
(400,100,l),
(400,0,l),
(300,0,l),
(300,100,l)
);
}
);
width = 900;
}
);
}
{
export = 0;
glyphname = pixel;
layers = (
{
layerId = m01;
shapes = (
{
closed = 1;
nodes = (
(100,0,l),
(100,100,l),
(0,100,l),
(0,0,l)
);
}
);
width = 100;
}
);
}
{
glyphname = quotedblleft.alt;
kernLeft = horizontal;
kernRight = horizontal;
layers = (
{
layerId = m01;
shapes = (
{
ref = quotedblbase.alt;
},
{
closed = 1;
nodes = (
(100,300,l),
(100,200,l),
(0,200,l),
(0,300,l)
);
},
{
closed = 1;
nodes = (
(300,300,l),
(300,200,l),
(200,200,l),
(200,300,l)
);
}
);
width = 900;
}
);
}
{
glyphname = quotedblright.alt;
kernLeft = horizontal;
kernRight = horizontal;
layers = (
{
layerId = m01;
shapes = (
{
ref = quotedblbase.alt;
},
{
closed = 1;
nodes = (
(700,300,l),
(700,200,l),
(600,200,l),
(600,300,l)
);
},
{
closed = 1;
nodes = (
(900,300,l),
(900,200,l),
(800,200,l),
(800,300,l)
);
}
);
width = 900;
}
);
}
{
glyphname = quoteleft.alt;
kernLeft = horizontal;
kernRight = horizontal;
layers = (
{
layerId = m01;
shapes = (
{
ref = quotedblbase.alt;
},
{
closed = 1;
nodes = (
(100,300,l),
(100,200,l),
(0,200,l),
(0,300,l)
);
}
);
width = 900;
}
);
}
{
glyphname = quotesingle.alt;
kernLeft = horizontal;
kernRight = horizontal;
layers = (
{
layerId = m01;
shapes = (
{
ref = quotedblbase.alt;
},
{
closed = 1;
nodes = (
(500,300,l),
(500,200,l),
(400,200,l),
(400,300,l)
);
}
);
width = 900;
}
);
}
{
glyphname = waccento;
kernLeft = horizontal;
kernRight = horizontal;
layers = (
{
layerId = m01;
shapes = (
{
ref = w;
},
{
closed = 1;
nodes = (
(300,300,l),
(300,200,l),
(200,200,l),
(200,300,l)
);
}
);
width = 900;
}
);
}
{
glyphname = yaccento;
kernLeft = horizontal;
kernRight = horizontal;
layers = (
{
layerId = m01;
shapes = (
{
ref = y;
},
{
closed = 1;
nodes = (
(200,300,l),
(200,200,l),
(100,200,l),
(100,300,l)
);
}
);
width = 900;
}
);
}
